<svg xmlns="http://www.w3.org/2000/svg" xmlns:xlink="http://www.w3.org/1999/xlink" width="1024" height="1024" viewBox="0 0 1024 1024">
  <defs>
    <style>
      .cls-1, .cls-10, .cls-11, .cls-12, .cls-13, .cls-14, .cls-15, .cls-16, .cls-17, .cls-18, .cls-19, .cls-2, .cls-20, .cls-21, .cls-22, .cls-23, .cls-24, .cls-26, .cls-27, .cls-28, .cls-29, .cls-3, .cls-30, .cls-31, .cls-32, .cls-4, .cls-5, .cls-6, .cls-7, .cls-8, .cls-9 {
        fill-rule: evenodd;
      }

      .cls-1 {
        fill: url(#linear-gradient);
      }

      .cls-2 {
        fill: url(#linear-gradient-2);
      }

      .cls-3 {
        fill: #b3b3b3;
      }

      .cls-4 {
        fill: url(#linear-gradient-3);
      }

      .cls-5 {
        fill: url(#linear-gradient-4);
      }

      .cls-6 {
        fill: #ccc;
      }

      .cls-7 {
        fill: url(#radial-gradient);
      }

      .cls-8 {
        fill: url(#radial-gradient-2);
      }

      .cls-9 {
        fill: url(#radial-gradient-3);
      }

      .cls-10 {
        fill: url(#linear-gradient-5);
      }

      .cls-11 {
        fill: url(#linear-gradient-6);
      }

      .cls-12 {
        fill: url(#linear-gradient-7);
      }

      .cls-13 {
        fill: url(#linear-gradient-8);
      }

      .cls-14 {
        fill: url(#linear-gradient-9);
      }

      .cls-15 {
        fill: none;
        stroke-width: 3px;
        stroke-dasharray: 12 6;
        stroke: url(#linear-gradient-10);
      }

      .cls-16 {
        fill: url(#linear-gradient-11);
      }

      .cls-17 {
        fill: url(#linear-gradient-12);
      }

      .cls-18 {
        fill: url(#linear-gradient-14);
      }

      .cls-19 {
        fill: #fff;
      }

      .cls-20 {
        fill: url(#linear-gradient-15);
      }

      .cls-21 {
        fill: url(#linear-gradient-16);
      }

      .cls-22 {
        fill: url(#linear-gradient-17);
      }

      .cls-23 {
        fill: url(#linear-gradient-18);
      }

      .cls-24 {
        fill: url(#linear-gradient-19);
      }

      .cls-25 {
        fill: url(#linear-gradient-20);
      }

      .cls-26 {
        fill: url(#linear-gradient-21);
      }

      .cls-27 {
        fill: #f8cfad;
      }

      .cls-28 {
        fill: #141a33;
      }

      .cls-29 {
        fill: #f0c5a8;
      }

      .cls-30 {
        fill: #232c57;
      }

      .cls-31 {
        fill: #292966;
      }

      .cls-32 {
        fill: #f6bb07;
      }
    </style>
    <linearGradient id="linear-gradient" x1="512.342" y1="2266.13" x2="512.342" y2="666.063" gradientUnits="userSpaceOnUse">
      <stop offset="0.919" stop-color="#e6e6e6" stop-opacity="0"/>
      <stop offset="1" stop-color="#e6e6e6"/>
    </linearGradient>
    <linearGradient id="linear-gradient-2" x1="528.912" y1="774" x2="388.088" y2="612" gradientUnits="userSpaceOnUse">
      <stop offset="0" stop-color="#ccc"/>
      <stop offset="1" stop-color="#e6e6e6" stop-opacity="0"/>
    </linearGradient>
    <linearGradient id="linear-gradient-3" x1="213.219" y1="721.704" x2="251.313" y2="683.61" gradientUnits="userSpaceOnUse">
      <stop offset="0" stop-color="#d7d7d7"/>
      <stop offset="0.485" stop-color="#fafafa"/>
      <stop offset="1" stop-color="#fafafa"/>
    </linearGradient>
    <linearGradient id="linear-gradient-4" x1="724.813" y1="821.718" x2="768.656" y2="777.876" gradientUnits="userSpaceOnUse">
      <stop offset="0" stop-color="#ccc"/>
      <stop offset="1" stop-color="#fafafa"/>
    </linearGradient>
    <radialGradient id="radial-gradient" cx="329.297" cy="647.578" r="8.172" gradientUnits="userSpaceOnUse">
      <stop offset="0" stop-color="#fafafa"/>
      <stop offset="1.2" stop-color="#e6e6e6"/>
    </radialGradient>
    <radialGradient id="radial-gradient-2" cx="802.297" cy="673.578" r="8.172" xlink:href="#radial-gradient"/>
    <radialGradient id="radial-gradient-3" cx="774.844" cy="642.75" r="5.531" xlink:href="#radial-gradient"/>
    <linearGradient id="linear-gradient-5" x1="513.493" y1="714.594" x2="471.007" y2="544.188" gradientUnits="userSpaceOnUse">
      <stop offset="0" stop-color="#999"/>
      <stop offset="1" stop-color="#ccc"/>
    </linearGradient>
    <linearGradient id="linear-gradient-6" x1="440.156" y1="564.031" x2="508.594" y2="495.594" gradientUnits="userSpaceOnUse">
      <stop offset="0" stop-color="#ccc"/>
      <stop offset="1" stop-color="#f0f0f0"/>
    </linearGradient>
    <linearGradient id="linear-gradient-7" x1="660.988" y1="754.156" x2="608.637" y2="544.188" xlink:href="#linear-gradient-5"/>
    <linearGradient id="linear-gradient-8" x1="479.188" y1="774.219" x2="649.782" y2="603.625" gradientUnits="userSpaceOnUse">
      <stop offset="0" stop-color="#b3b3b3"/>
      <stop offset="1" stop-color="#e6e6e6"/>
    </linearGradient>
    <linearGradient id="linear-gradient-9" x1="447.121" y1="774.219" x2="394.661" y2="563.813" xlink:href="#linear-gradient-5"/>
    <linearGradient id="linear-gradient-10" x1="494" y1="597" x2="628" y2="463" xlink:href="#linear-gradient-6"/>
    <linearGradient id="linear-gradient-11" x1="610.485" y1="604.938" x2="697.298" y2="518.125" gradientUnits="userSpaceOnUse">
      <stop offset="0" stop-color="#ccc"/>
      <stop offset="1" stop-color="#fff"/>
    </linearGradient>
    <linearGradient id="linear-gradient-12" x1="457.438" y1="619.25" x2="353.469" y2="619.25" gradientUnits="userSpaceOnUse">
      <stop offset="0" stop-color="#e6e6e6" stop-opacity="0"/>
      <stop offset="1" stop-color="#e6e6e6"/>
    </linearGradient>
    <linearGradient id="linear-gradient-14" x1="542.734" y1="674.25" x2="615.672" y2="601.313" xlink:href="#linear-gradient-6"/>
    <linearGradient id="linear-gradient-15" x1="627.933" y1="358.938" x2="685.192" y2="422.531" gradientUnits="userSpaceOnUse">
      <stop offset="0.4" stop-color="#e6e6e6" stop-opacity="0.4"/>
      <stop offset="0.443" stop-color="#fff"/>
      <stop offset="0.6" stop-color="#ccc"/>
    </linearGradient>
    <linearGradient id="linear-gradient-16" x1="618.547" y1="422.531" x2="681.547" y2="359.531" gradientUnits="userSpaceOnUse">
      <stop offset="0" stop-color="#e6e6e6"/>
      <stop offset="0.761" stop-color="#fff"/>
      <stop offset="1" stop-color="#f0f0f0"/>
    </linearGradient>
    <linearGradient id="linear-gradient-17" x1="625" y1="441.5" x2="697" y2="369.5" gradientUnits="userSpaceOnUse">
      <stop offset="0" stop-color="#ccc"/>
      <stop offset="0.761" stop-color="#fff"/>
      <stop offset="1" stop-color="#f0f0f0"/>
    </linearGradient>
    <linearGradient id="linear-gradient-18" x1="627.681" y1="361.438" x2="692.257" y2="433.156" xlink:href="#linear-gradient-15"/>
    <linearGradient id="linear-gradient-19" x1="561.414" y1="735.438" x2="573.149" y2="688.375" xlink:href="#linear-gradient-11"/>
    <linearGradient id="linear-gradient-20" x1="405" y1="485.875" x2="440" y2="450.875" gradientUnits="userSpaceOnUse">
      <stop offset="0" stop-color="#ccc"/>
      <stop offset="1" stop-color="#fff" stop-opacity="0.702"/>
    </linearGradient>
    <linearGradient id="linear-gradient-21" x1="404.61" y1="486.906" x2="441.86" y2="449.656" gradientUnits="userSpaceOnUse">
      <stop offset="0" stop-color="#ccc"/>
      <stop offset="0.495" stop-color="#ccc" stop-opacity="0.702"/>
      <stop offset="0.498" stop-color="#ccc"/>
      <stop offset="1" stop-color="#fff" stop-opacity="0.302"/>
    </linearGradient>
  </defs>
  <g id="画板_1" data-name="画板 1">
    <path id="椭圆_1" data-name="椭圆 1" class="cls-1" d="M512.33,666.07c441.828,0,800,358.18,800,800.03s-358.172,800.02-800,800.02-800-358.18-800-800.02S70.5,666.07,512.33,666.07Z"/>
    <g id="组_1" data-name="组 1">
      <path id="阴影" class="cls-2" d="M272,694l242-82L645,731,457,774Z"/>
      <path id="圆角矩形_1" data-name="圆角矩形 1" class="cls-3" d="M232.391,723.534a2.4,2.4,0,0,1,2.4,2.4v17.725a2.4,2.4,0,0,1-4.8,0V725.934A2.4,2.4,0,0,1,232.391,723.534Z"/>
      <path id="椭圆_7" data-name="椭圆 7" class="cls-4" d="M232.255,676.559c10.33,0,17.067,15.408,18.7,28.493,1.619,12.942-2.372,23.694-18.7,23.694-16.878,0-20.213-10.733-18.7-23.694C215.188,690.991,221.925,676.559,232.255,676.559Z"/>
      <path id="圆角矩形_1-2" data-name="圆角矩形 1" class="cls-3" d="M745.853,826h0.938a2.4,2.4,0,0,1,2.4,2.4v22.238a2.4,2.4,0,0,1-2.4,2.4h-0.938a2.4,2.4,0,0,1-2.4-2.4V828.4A2.4,2.4,0,0,1,745.853,826Z"/>
      <path id="椭圆_8" data-name="椭圆 8" class="cls-5" d="M746.727,830.3c-19.438,0-23.278-9.326-21.541-20.59a34.467,34.467,0,0,1,3.289-10.369,16.628,16.628,0,0,1,0-9.112c2.889-12.327,12.059-20.911,18.356-20.911,6.56,0,15.468,9.1,18.356,20.911a14.589,14.589,0,0,1-.335,9.217,34.36,34.36,0,0,1,3.419,10.264C770.132,820.953,765.536,830.3,746.727,830.3Z"/>
      <path id="多边形_2" data-name="多边形 2" class="cls-6" d="M328.841,654.562a6.571,6.571,0,0,0-5.2-5.027q-4.107-.952-0.034-2.045a6.571,6.571,0,0,0,5.027-5.2q0.952-4.109,2.045-.035a6.569,6.569,0,0,0,5.2,5.027q4.109,0.954.035,2.045a6.569,6.569,0,0,0-5.027,5.2Q329.932,658.635,328.841,654.562Z"/>
      <path id="多边形_2-2" data-name="多边形 2" class="cls-7" d="M328.383,653.73a6.567,6.567,0,0,0-5.2-5.027q-4.109-.954-0.035-2.045a6.568,6.568,0,0,0,5.027-5.2q0.954-4.107,2.046-.034a6.568,6.568,0,0,0,5.2,5.027q4.107,0.952.035,2.045a6.568,6.568,0,0,0-5.027,5.2Q329.475,657.8,328.383,653.73Z"/>
      <path id="多边形_2-3" data-name="多边形 2" class="cls-6" d="M801.841,680.562a6.571,6.571,0,0,0-5.2-5.027q-4.107-.952-0.034-2.045a6.571,6.571,0,0,0,5.027-5.2q0.952-4.109,2.045-.035a6.569,6.569,0,0,0,5.2,5.027q4.108,0.954.035,2.045a6.569,6.569,0,0,0-5.027,5.2Q802.932,684.635,801.841,680.562Z"/>
      <path id="多边形_2-4" data-name="多边形 2" class="cls-8" d="M801.383,679.73a6.567,6.567,0,0,0-5.2-5.027q-4.108-.954-0.035-2.045a6.568,6.568,0,0,0,5.027-5.2q0.954-4.107,2.046-.034a6.568,6.568,0,0,0,5.2,5.027q4.107,0.952.035,2.045a6.568,6.568,0,0,0-5.027,5.2Q802.475,683.8,801.383,679.73Z"/>
      <path id="多边形_2-5" data-name="多边形 2" class="cls-9" d="M774.21,646.9a4.446,4.446,0,0,0-3.517-3.4q-2.778-.643-0.023-1.383a4.443,4.443,0,0,0,3.4-3.517q0.645-2.778,1.383-.023a4.443,4.443,0,0,0,3.517,3.4q2.778,0.645.023,1.383a4.446,4.446,0,0,0-3.4,3.517Q774.948,649.657,774.21,646.9Z"/>
      <path id="形状_1" data-name="形状 1" class="cls-10" d="M385.6,714.6l0.158-150.658L598.9,544.174l-0.158,150.658Z"/>
      <path id="形状_3" data-name="形状 3" class="cls-11" d="M385.474,564.031l214.763-19.383-36.171-49.067L348.507,513.215Z"/>
      <path id="形状_1-2" data-name="形状 1" class="cls-12" d="M598.744,694.832L598.9,544.174l71.975,59.319-0.158,150.658Z"/>
      <path id="形状_1-3" data-name="形状 1" class="cls-13" d="M457.064,774.209l0.158-150.658,214.691-19.914L671.755,754.3Z"/>
      <path id="形状_1-4" data-name="形状 1" class="cls-14" d="M384.566,714.459L384.724,563.8l72.5,59.75-0.158,150.658Z"/>
      <path id="形状_4" data-name="形状 4" class="cls-15" d="M494,640s75.357-58.4,42-83-38.887,1.663-37,14,53.847,12.465,54-26c0.2-49.979,75-125,75-125"/>
      <path id="形状_3-2" data-name="形状 3" class="cls-16" d="M670.275,604.939l-72.041-59.9,38.476-26.909,72.86,58.159Z"/>
      <path id="形状_3-3" data-name="形状 3" class="cls-17" d="M425.5,674.383l-72.042-59.9,31.109-50.347,72.86,58.16Z"/>
      <path id="形状_3-4" data-name="形状 3" class="cls-17" d="M425.5,674.383l-72.042-59.9,31.109-50.347,72.86,58.16Z"/>
      <path id="形状_3-5" data-name="形状 3" class="cls-18" d="M487.918,674.235L702.4,651.665,671.3,601.319,455.991,622.152Z"/>
      <path id="形状_5" data-name="形状 5" class="cls-19" d="M697.363,358.927l-69.58,62.511-12.035,1.082Z"/>
      <path id="形状_5-2" data-name="形状 5" class="cls-20" d="M697.363,358.927l-69.58,62.511-12.035,1.082Z"/>
      <path id="形状_6" data-name="形状 6" class="cls-21" d="M615.748,422.52L604,413l92.089-53.46"/>
      <path id="形状_6-2" data-name="形状 6" class="cls-22" d="M625,432l12,18,60-89"/>
      <path id="形状_5-3" data-name="形状 5" class="cls-19" d="M626.98,421.335l-2.471,11.828,70.918-71.735"/>
      <path id="形状_5-4" data-name="形状 5" class="cls-23" d="M626.98,421.335l-2.471,11.828,70.918-71.735"/>
      <path id="empty" class="cls-24" d="M494.814,735.44l21.293-2.1v-6.613l-13.4,1.319v-6.965l10.977-1.08v-6.613l-10.977,1.08v-6.084l12.917-1.27v-6.525l-20.808,2.047v32.8ZM521,732.863l7.054-.694V720.928a106.361,106.361,0,0,0-1.014-11.274l0.176-.017,2.645,7.586,4.453,11.553,4.32-.425,4.408-12.424,2.733-8.116,0.177-.018a111.811,111.811,0,0,0-1.014,11.474v11.241l7.185-.707V697l-8.552.841-5.025,14.646c-0.618,1.956-1.147,4.08-1.808,6.173l-0.22.022c-0.617-1.968-1.146-3.987-1.808-5.818l-5.2-13.639-8.508.837v32.8Zm37.213-3.661,7.891-.776V717.537l3.835-.377c6.922-.681,12.961-4.714,12.961-12.517,0-8.111-5.951-10.082-13.181-9.371L558.215,696.4v32.8Zm7.891-17.881v-9.478l3.218-.316c3.792-.373,5.908.565,5.908,3.871,0,3.218-1.852,5.208-5.687,5.585ZM594,725.682l7.891-.777V698.631l8.905-.876v-6.524l-25.657,2.524v6.524l8.861-.871v26.274Zm27.991-2.754,7.847-.772V710.562l9.919-22.18-8.244.811-2.733,7.542c-0.925,2.56-1.807,4.939-2.733,7.587l-0.176.018c-0.926-2.466-1.764-4.676-2.645-7.058l-2.734-7-8.375.824,9.874,20.233v11.594Z"/>
      <path id="椭圆_9" data-name="椭圆 9" class="cls-6" d="M408.938,457.309a17.5,17.5,0,0,0,21.374,26.725,17.5,17.5,0,1,1-16.306-30.955A17.442,17.442,0,0,0,408.938,457.309Z"/>
      <circle id="椭圆_9-2" data-name="椭圆 9" class="cls-25" cx="422.5" cy="468.375" r="17.5"/>
      <path id="椭圆_11" data-name="椭圆 11" class="cls-6" d="M391.76,451.5c-2.358,4.419,9.827,15.52,27.215,24.8,15.131,8.071,29.212,12.1,34.166,10.093-4.191,2.772-18.943-1.24-34.86-9.73-17.388-9.275-29.573-20.376-27.215-24.8a2.96,2.96,0,0,1,1.585-1.3A2.606,2.606,0,0,0,391.76,451.5Z"/>
      <path id="形状_15" data-name="形状 15" class="cls-26" d="M418.975,476.29c-17.388-9.275-29.573-20.376-27.215-24.8s18.363-.484,35.751,8.791,29.572,20.376,27.215,24.8S436.362,485.564,418.975,476.29Zm31.634,5.732c1.824-3.42-8.789-12.642-23.7-20.6s-28.486-11.633-30.31-8.213,8.789,12.642,23.7,20.6S448.785,485.442,450.609,482.022Zm-36.645-29.008-2.775,1.452,0.032,1.751L439.858,470.4l0.266-4.559Z"/>
    </g>
    <g id="人">
      <path id="形状_12" data-name="形状 12" class="cls-27" d="M612.131,676.5l1.362,3.532,3.255-2.324-1.361-3.532Z"/>
      <path id="形状_12-2" data-name="形状 12" class="cls-27" d="M629.131,665.5l1.362,3.532,3.255-2.324-1.361-3.532Z"/>
      <path id="形状_20" data-name="形状 20" class="cls-28" d="M617.764,678.184l-3.162-.078a11.028,11.028,0,0,0-1.034,3.454c-0.258,2.006-1.177,5-.449,5.367,1.5,2.659,4.118-.215,4.118-0.215s2.187-2.848,1.925-5.265C619.056,680.474,617.981,679.578,617.764,678.184Z"/>
      <path id="形状_20-2" data-name="形状 20" class="cls-28" d="M633.781,665.855L636.8,666.8a11.008,11.008,0,0,1-.137,3.6c-0.4,1.981-.179,4.166-0.986,4.277-2.283,2.03-3.827-1.533-3.827-1.533s-1.473-2.456-.444-4.659C631.818,667.605,633.124,667.1,633.781,665.855Z"/>
      <path id="形状_3-6" data-name="形状 3" class="cls-29" d="M599.935,592.534s10.293,9.761,11.95,7.564,3.536-3.463-6.758-13.65Z"/>
      <path id="形状_4-2" data-name="形状 4" class="cls-27" d="M611.3,596.361c1.674-1.105,11.5,7.048,14.5,11.774s-12.705-4.36-14.632-6.776S609.628,597.466,611.3,596.361Z"/>
      <path id="形状_6-3" data-name="形状 6" class="cls-27" d="M621.815,607.988s1.809,2.549,2.433,1.756,2.475-1.064,2.449-1.138,0.1-.819,1.288-2.331-3.8-3.632-5.81-.494A2.556,2.556,0,0,0,621.815,607.988Z"/>
      <path id="形状_19" data-name="形状 19" class="cls-30" d="M598,617s14.968-5.618,17,7a150.235,150.235,0,0,1,2,22s12.666,11.836,16,19c0,0-4.753-1.629-4,2,0,0-18.132-14.647-19-19S600.852,629.284,598,617Z"/>
      <path id="形状_19-2" data-name="形状 19" class="cls-31" d="M589,622s14.968-5.618,17,7a150.235,150.235,0,0,1,2,22s4.666,17.836,8,25c0,0-4.753-1.629-4,2,0,0-10.132-20.647-11-25S591.852,634.284,589,622Z"/>
      <path id="形状_3-7" data-name="形状 3" class="cls-29" d="M585.626,597.7s-10.292,9.761-11.95,7.563-3.536-3.463,6.758-13.65Z"/>
      <path id="形状_4-3" data-name="形状 4" class="cls-27" d="M574.259,601.529c-1.675-1.105-11.5,7.049-14.5,11.774s12.7-4.36,14.631-6.775S575.933,602.634,574.259,601.529Z"/>
      <path id="形状_9" data-name="形状 9" class="cls-29" d="M591.715,577.752s-0.606,1.681,1.48,3.716-3.615,5.307-4.645,2.85-0.48-2.716-.48-2.716Z"/>
      <path id="形状_7" data-name="形状 7" class="cls-27" d="M583.527,574.123c-0.839,1.043.491,3.873,1.453,5.449s2.749,2.833,3.364,2.428,4.088-2.657,4-4-0.228-3.4-.228-3.4,2.562-1.641,2.154-2.916-2.916-.154-2.916-0.154a15.853,15.853,0,0,0-.227-2.224c-0.189-.929-6.887-1.445-7.827,2.6S583.858,573.711,583.527,574.123Z"/>
      <path id="形状_8" data-name="形状 8" class="cls-30" d="M584.227,567.758c2.1-.885,7.2-3.684,10.125.318s0.842,4.385.989,5.294S593.447,579.06,594,580s-3.865.8-4.657-1.179-2.844-.539-2.227-1.224-1.3-4.456-2.916-2.154a9.252,9.252,0,0,0,.309-1.38c-0.115.192,0.259-3.257-.673-1.32s-2.1,1.037-3.069.762-1.8-1.118-1.071-1.689C579.719,571.8,582.132,568.644,584.227,567.758Z"/>
      <path id="形状_18" data-name="形状 18" class="cls-32" d="M589,585c-2.584-.47-10.055.362-13,13,0,0,1.9,3.349,5,4s6,21,6,21,24.016,11.06,27-3c-0.07-13.826-8-21-8-21s5.829-3.2,5-6-8.016-10.153-11-10-6,0-6,0S591.584,585.47,589,585Z"/>
      <path id="形状_6-4" data-name="形状 6" class="cls-27" d="M563.284,612.581s-0.986,2.965-1.814,2.389-2.678-.3-2.675-0.374-0.333-.755-1.912-1.854,2.577-4.583,5.414-2.167A2.551,2.551,0,0,1,563.284,612.581Z"/>
    </g>
  </g>
</svg>
