<?xml version="1.0" standalone="no"?><!DOCTYPE svg PUBLIC "-//W3C//DTD SVG 1.1//EN"
  "http://www.w3.org/Graphics/SVG/1.1/DTD/svg11.dtd">
<svg t="1646638495265" class="icon" viewBox="0 0 1029 1024" version="1.1" xmlns="http://www.w3.org/2000/svg" p-id="3469"
     xmlns:xlink="http://www.w3.org/1999/xlink" width="48.234375" height="48">
  <defs>
    <style type="text/css"></style>
  </defs>
  <path
    d="M514.547264 5.094527C233.329353 5.094527 5.094527 233.329353 5.094527 514.547264s228.234826 509.452736 509.452737 509.452736 509.452736-228.234826 509.452736-509.452736S795.765174 5.094527 514.547264 5.094527z m62.662686 731.064677H332.163184c-21.397015 0-38.718408-17.321393-38.718408-38.718408V452.39403c0-34.642786 41.775124-51.454726 65.719403-27.510448l245.046766 245.046766c24.453731 24.453731 7.132338 66.228856-27.000995 66.228856z m158.439801-158.949254c0 34.642786-41.775124 51.454726-65.719403 27.510448L424.883582 359.673632c-24.453731-24.453731-7.132338-65.719403 27.510448-65.719403h245.046766c21.397015 0 38.718408 17.321393 38.718408 38.718408l-0.509453 244.537313z"
    fill="#e6c029" p-id="3470"></path>
</svg>
