<?xml version="1.0" standalone="no"?><!DOCTYPE svg PUBLIC "-//W3C//DTD SVG 1.1//EN"
  "http://www.w3.org/Graphics/SVG/1.1/DTD/svg11.dtd">
<svg t="1646637940573" class="icon" viewBox="0 0 1029 1024" version="1.1" xmlns="http://www.w3.org/2000/svg" p-id="2986"
     width="48.234375" height="48" xmlns:xlink="http://www.w3.org/1999/xlink">
  <defs>
    <style type="text/css"></style>
  </defs>
  <path
    d="M514.547264 5.094527C233.329353 5.094527 5.094527 233.329353 5.094527 514.547264s228.234826 509.452736 509.452737 509.452736 509.452736-228.234826 509.452736-509.452736S795.765174 5.094527 514.547264 5.094527z m221.102487 691.836816c0 21.397015-17.321393 38.718408-38.718408 38.718408H332.163184c-21.397015 0-38.718408-17.321393-38.718408-38.718408V331.653731c0-21.397015 17.321393-38.718408 38.718408-38.718408h365.277612c21.397015 0 38.718408 17.321393 38.718408 38.718408v365.277612z"
    fill="#ff5a52" p-id="2987"></path>
  <path
    d="M628.155224 463.60199H400.939303c-10.698507 0-18.849751 11.20796-18.849751 25.472637v50.945273c0 14.264677 8.660697 25.472637 18.849751 25.472637h227.215921c10.698507 0 18.849751-11.20796 18.849751-25.472637V489.074627c0-14.264677-8.660697-25.472637-18.849751-25.472637z"
    fill="#ff5a52" p-id="2988"></path>
</svg>
