<?xml version="1.0" standalone="no"?><!DOCTYPE svg PUBLIC "-//W3C//DTD SVG 1.1//EN"
  "http://www.w3.org/Graphics/SVG/1.1/DTD/svg11.dtd">
<svg t="1646638989240" class="icon" viewBox="0 0 1029 1024" version="1.1" xmlns="http://www.w3.org/2000/svg" p-id="4146"
     xmlns:xlink="http://www.w3.org/1999/xlink" width="48.234375" height="48">
  <defs>
    <style type="text/css"></style>
  </defs>
  <path
    d="M5.094527 514.547264c0 281.21791 228.234826 509.452736 509.452737 509.452736s509.452736-228.234826 509.452736-509.452736S795.765174 5.094527 514.547264 5.094527 5.094527 233.329353 5.094527 514.547264z m623.060697-190.025871c42.284577 0 76.41791 34.133333 76.41791 76.41791s-34.133333 76.41791-76.41791 76.417911-76.41791-34.133333-76.417911-76.417911c0-41.775124 34.133333-76.41791 76.417911-76.41791zM359.164179 424.883582l245.046766 245.046766c24.453731 24.453731 7.132338 65.719403-27.510447 65.719403H331.653731c-21.397015 0-38.718408-17.321393-38.718408-38.718408V451.884577c0.509453-34.133333 41.775124-50.945274 66.228856-27.000995z"
    fill="#f4ea2a" p-id="4147"></path>
</svg>
